<?xml version="1.0" standalone="no"?><!DOCTYPE svg PUBLIC "-//W3C//DTD SVG 1.1//EN" "http://www.w3.org/Graphics/SVG/1.1/DTD/svg11.dtd"><svg t="1584271248717" class="icon" viewBox="0 0 1024 1024" version="1.1" xmlns="http://www.w3.org/2000/svg" p-id="1186" width="16" height="16" xmlns:xlink="http://www.w3.org/1999/xlink"><defs><style type="text/css"></style></defs><path d="M832 969.102222H191.829333c-58.88 0-106.666667-49.948444-106.666666-111.559111L85.333333 168.504889C85.333333 106.894222 133.12 56.888889 192 56.888889h497.777778c19.683556 0 35.612444 21.560889 35.612444 42.097778 0 20.650667-15.928889 43.52-35.612444 43.52l-482.986667 3.299555c-19.456 0-35.498667 16.782222-35.498667 37.205334v666.168888c0 20.536889 16.042667 37.148444 35.555556 37.148445h614.456889a36.352 36.352 0 0 0 35.555555-37.205333V317.041778c0-20.593778 21.504-35.271111 41.187556-35.271111s40.618667 14.677333 40.618667 35.271111l-0.170667 540.273778c0.170667 61.610667-47.786667 111.786667-106.496 111.786666z" fill="#000000" p-id="1187"></path><path d="M623.217778 398.222222c-14.392889-13.312-13.084444-45.397333 0-60.302222L894.976 49.493333c13.084444-14.961778 44.600889-14.961778 58.481778 0s13.084444 45.169778 0 60.131556L681.699556 398.222222c-6.485333 7.395556-45.340444 12.117333-58.481778 0zM504.888889 477.866667h-213.333333c-19.683556 0-35.555556-23.950222-35.555556-39.822223 0-15.872 15.872-39.822222 35.555556-39.822222h213.333333c19.683556 0 35.555556 23.950222 35.555555 39.822222 0 15.872-15.872 39.822222-35.555555 39.822223zM731.420444 648.533333H292.408889c-20.252444 0-36.352-23.608889-36.352-39.822222s16.327111-39.822222 36.579555-39.822222h438.840889c20.252444 0 37.148444 23.608889 37.148445 39.822222s-17.066667 39.822222-37.148445 39.822222z" fill="#000000" p-id="1188"></path></svg>